{
	"asset":{
		"generator":"Khronos glTF Blender I/O v4.1.63",
		"version":"2.0"
	},
	"scene":0,
	"scenes":[
		{
			"name":"Scene",
			"nodes":[
				0
			]
		}
	],
	"nodes":[
		{
			"mesh":0,
			"name":"\u5186\u67f1",
			"scale":[
				10.14731502532959,
				0.5,
				10.147299766540527
			],
			"translation":[
				0,
				-0.5,
				0
			]
		}
	],
	"materials":[
		{
			"doubleSided":true,
			"name":"\u30de\u30c6\u30ea\u30a2\u30eb",
			"normalTexture":{
				"index":0
			},
			"pbrMetallicRoughness":{
				"baseColorTexture":{
					"index":1
				},
				"metallicFactor":0
			}
		}
	],
	"meshes":[
		{
			"name":"\u5186\u67f1.009",
			"primitives":[
				{
					"attributes":{
						"POSITION":0,
						"NORMAL":1,
						"TEXCOORD_0":2,
						"TEXCOORD_1":3
					},
					"indices":4,
					"material":0
				}
			]
		}
	],
	"textures":[
		{
			"sampler":0,
			"source":0
		},
		{
			"sampler":0,
			"source":1
		}
	],
	"images":[
		{
			"mimeType":"image/png",
			"name":"stone_floor_normal",
			"uri":"stone_floor_normal.png"
		},
		{
			"mimeType":"image/png",
			"name":"stone_floor_basecolor",
			"uri":"stone_floor_basecolor.png"
		}
	],
	"accessors":[
		{
			"bufferView":0,
			"componentType":5126,
			"count":649,
			"max":[
				0.975897490978241,
				1,
				0.9685941338539124
			],
			"min":[
				-0.9711781740188599,
				-1,
				-0.9784843921661377
			],
			"type":"VEC3"
		},
		{
			"bufferView":1,
			"componentType":5126,
			"count":649,
			"type":"VEC3"
		},
		{
			"bufferView":2,
			"componentType":5126,
			"count":649,
			"type":"VEC2"
		},
		{
			"bufferView":3,
			"componentType":5126,
			"count":649,
			"type":"VEC2"
		},
		{
			"bufferView":4,
			"componentType":5123,
			"count":1758,
			"type":"SCALAR"
		}
	],
	"bufferViews":[
		{
			"buffer":0,
			"byteLength":7788,
			"byteOffset":0,
			"target":34962
		},
		{
			"buffer":0,
			"byteLength":7788,
			"byteOffset":7788,
			"target":34962
		},
		{
			"buffer":0,
			"byteLength":5192,
			"byteOffset":15576,
			"target":34962
		},
		{
			"buffer":0,
			"byteLength":5192,
			"byteOffset":20768,
			"target":34962
		},
		{
			"buffer":0,
			"byteLength":3516,
			"byteOffset":25960,
			"target":34963
		}
	],
	"samplers":[
		{
			"magFilter":9729,
			"minFilter":9987
		}
	],
	"buffers":[
		{
			"byteLength":29476,
			"uri":"Ground.bin"
		}
	]
}
