{
	"asset":{
		"generator":"Khronos glTF Blender I/O v4.1.63",
		"version":"2.0"
	},
	"extensionsUsed":[
		"KHR_materials_specular"
	],
	"scene":0,
	"scenes":[
		{
			"name":"Scene",
			"nodes":[
				0,
				1
			]
		}
	],
	"nodes":[
		{
			"mesh":0,
			"name":"Sword",
			"rotation":[
				1,
				0,
				0,
				7.549790126404332e-08
			],
			"scale":[
				0.01965790055692196,
				0.01965790055692196,
				0.02383999153971672
			],
			"translation":[
				0,
				0.0033431854099035263,
				-0.12850306928157806
			]
		},
		{
			"mesh":1,
			"name":"EnergySource",
			"rotation":[
				1,
				0,
				0,
				7.549789415861596e-08
			],
			"scale":[
				0.009999999776482582,
				0.009999999776482582,
				0.009999999776482582
			],
			"translation":[
				-0.00044549821177497506,
				0,
				0
			]
		}
	],
	"materials":[
		{
			"doubleSided":true,
			"extensions":{
				"KHR_materials_specular":{
					"specularColorFactor":[
						2.0,
						2.0,
						2.0
					]
				}
			},
			"name":"DefaultMaterial.001",
			"pbrMetallicRoughness":{
				"baseColorTexture":{
					"index":0
				}
			}
		}
	],
	"meshes":[
		{
			"name":"Sword",
			"primitives":[
				{
					"attributes":{
						"POSITION":0,
						"NORMAL":1,
						"TEXCOORD_0":2
					},
					"indices":3,
					"material":0
				}
			]
		},
		{
			"name":"EnergySource",
			"primitives":[
				{
					"attributes":{
						"POSITION":4,
						"NORMAL":5,
						"TEXCOORD_0":6
					},
					"indices":7,
					"material":0
				}
			]
		}
	],
	"textures":[
		{
			"sampler":0,
			"source":0
		}
	],
	"images":[
		{
			"mimeType":"image/png",
			"name":"DivineSword_AlbedoTransparency",
			"uri":"DivineSword_AlbedoTransparency.png"
		}
	],
	"accessors":[
		{
			"bufferView":0,
			"componentType":5126,
			"count":1161,
			"max":[
				15.006224632263184,
				2.707463264465332,
				26.36113739013672
			],
			"min":[
				-15.11622428894043,
				-1.9931640625,
				-134.82150268554688
			],
			"type":"VEC3"
		},
		{
			"bufferView":1,
			"componentType":5126,
			"count":1161,
			"type":"VEC3"
		},
		{
			"bufferView":2,
			"componentType":5126,
			"count":1161,
			"type":"VEC2"
		},
		{
			"bufferView":3,
			"componentType":5123,
			"count":5541,
			"type":"SCALAR"
		},
		{
			"bufferView":4,
			"componentType":5126,
			"count":130,
			"max":[
				1.4133896827697754,
				2.5676774978637695,
				2.0683059692382812
			],
			"min":[
				-1.4137822389602661,
				-2.567676305770874,
				-2.068317413330078
			],
			"type":"VEC3"
		},
		{
			"bufferView":5,
			"componentType":5126,
			"count":130,
			"type":"VEC3"
		},
		{
			"bufferView":6,
			"componentType":5126,
			"count":130,
			"type":"VEC2"
		},
		{
			"bufferView":7,
			"componentType":5123,
			"count":672,
			"type":"SCALAR"
		}
	],
	"bufferViews":[
		{
			"buffer":0,
			"byteLength":13932,
			"byteOffset":0,
			"target":34962
		},
		{
			"buffer":0,
			"byteLength":13932,
			"byteOffset":13932,
			"target":34962
		},
		{
			"buffer":0,
			"byteLength":9288,
			"byteOffset":27864,
			"target":34962
		},
		{
			"buffer":0,
			"byteLength":11082,
			"byteOffset":37152,
			"target":34963
		},
		{
			"buffer":0,
			"byteLength":1560,
			"byteOffset":48236,
			"target":34962
		},
		{
			"buffer":0,
			"byteLength":1560,
			"byteOffset":49796,
			"target":34962
		},
		{
			"buffer":0,
			"byteLength":1040,
			"byteOffset":51356,
			"target":34962
		},
		{
			"buffer":0,
			"byteLength":1344,
			"byteOffset":52396,
			"target":34963
		}
	],
	"samplers":[
		{
			"magFilter":9729,
			"minFilter":9987
		}
	],
	"buffers":[
		{
			"byteLength":53740,
			"uri":"Sword.bin"
		}
	]
}
