{
	"asset":{
		"generator":"Khronos glTF Blender I/O v4.1.62",
		"version":"2.0"
	},
	"extensionsUsed":[
		"KHR_materials_specular"
	],
	"scene":0,
	"scenes":[
		{
			"name":"Scene",
			"nodes":[
				0,
				5
			]
		}
	],
	"nodes":[
		{
			"mesh":0,
			"name":"EnergySource",
			"rotation":[
				1,
				0,
				0,
				7.549789415861596e-08
			],
			"scale":[
				0.009999999776482582,
				0.009999999776482582,
				0.009999999776482582
			],
			"translation":[
				-0.00044549821177497506,
				0,
				0
			]
		},
		{
			"name":"sword.Bottom",
			"rotation":[
				-0.00012521722237579525,
				-5.2154096152889906e-08,
				0.0016732916701585054,
				0.9999986290931702
			],
			"scale":[
				0.9999999403953552,
				0.9999998211860657,
				0.9999998211860657
			],
			"translation":[
				-6.657501216977835e-10,
				1.1913833618164062,
				5.820766091346741e-11
			]
		},
		{
			"children":[
				1
			],
			"name":"sword.Center",
			"rotation":[
				0.00015945536142680794,
				-0.02046407200396061,
				-0.0016703790752217174,
				0.9997892379760742
			],
			"scale":[
				0.9999999403953552,
				1,
				1
			],
			"translation":[
				0,
				1.4624135494232178,
				-7.105427357601002e-15
			]
		},
		{
			"children":[
				2
			],
			"name":"sword.Top",
			"rotation":[
				-0.7071067690849304,
				0,
				0,
				0.7071067690849304
			],
			"translation":[
				0,
				0,
				2.951655626296997
			]
		},
		{
			"mesh":1,
			"name":"Sword",
			"skin":0
		},
		{
			"children":[
				4,
				3
			],
			"name":"sword"
		}
	],
	"materials":[
		{
			"doubleSided":true,
			"extensions":{
				"KHR_materials_specular":{
					"specularColorFactor":[
						2.0,
						2.0,
						2.0
					]
				}
			},
			"name":"DefaultMaterial.001",
			"pbrMetallicRoughness":{
				"baseColorTexture":{
					"index":0
				}
			}
		}
	],
	"meshes":[
		{
			"name":"EnergySource",
			"primitives":[
				{
					"attributes":{
						"POSITION":0,
						"NORMAL":1,
						"TEXCOORD_0":2
					},
					"indices":3,
					"material":0
				}
			]
		},
		{
			"name":"Sword",
			"primitives":[
				{
					"attributes":{
						"POSITION":4,
						"NORMAL":5,
						"TEXCOORD_0":6,
						"JOINTS_0":7,
						"WEIGHTS_0":8
					},
					"indices":9,
					"material":0
				}
			]
		}
	],
	"textures":[
		{
			"sampler":0,
			"source":0
		}
	],
	"images":[
		{
			"mimeType":"image/png",
			"name":"DivineSword_AlbedoTransparency",
			"uri":"DivineSword_AlbedoTransparency.png"
		}
	],
	"skins":[
		{
			"inverseBindMatrices":10,
			"joints":[
				3,
				2,
				1
			],
			"name":"sword"
		}
	],
	"accessors":[
		{
			"bufferView":0,
			"componentType":5126,
			"count":130,
			"max":[
				1.4133896827697754,
				2.5676774978637695,
				2.0683059692382812
			],
			"min":[
				-1.4137822389602661,
				-2.567676305770874,
				-2.068317413330078
			],
			"type":"VEC3"
		},
		{
			"bufferView":1,
			"componentType":5126,
			"count":130,
			"type":"VEC3"
		},
		{
			"bufferView":2,
			"componentType":5126,
			"count":130,
			"type":"VEC2"
		},
		{
			"bufferView":3,
			"componentType":5123,
			"count":672,
			"type":"SCALAR"
		},
		{
			"bufferView":4,
			"componentType":5126,
			"count":1161,
			"max":[
				0.2949908673763275,
				0.04252465069293976,
				3.0856404304504395
			],
			"min":[
				-0.2971532344818115,
				-0.04987981170415878,
				-0.7569524049758911
			],
			"type":"VEC3"
		},
		{
			"bufferView":5,
			"componentType":5126,
			"count":1161,
			"type":"VEC3"
		},
		{
			"bufferView":6,
			"componentType":5126,
			"count":1161,
			"type":"VEC2"
		},
		{
			"bufferView":7,
			"componentType":5121,
			"count":1161,
			"type":"VEC4"
		},
		{
			"bufferView":8,
			"componentType":5126,
			"count":1161,
			"type":"VEC4"
		},
		{
			"bufferView":9,
			"componentType":5123,
			"count":5541,
			"type":"SCALAR"
		},
		{
			"bufferView":10,
			"componentType":5126,
			"count":3,
			"type":"MAT4"
		}
	],
	"bufferViews":[
		{
			"buffer":0,
			"byteLength":1560,
			"byteOffset":0,
			"target":34962
		},
		{
			"buffer":0,
			"byteLength":1560,
			"byteOffset":1560,
			"target":34962
		},
		{
			"buffer":0,
			"byteLength":1040,
			"byteOffset":3120,
			"target":34962
		},
		{
			"buffer":0,
			"byteLength":1344,
			"byteOffset":4160,
			"target":34963
		},
		{
			"buffer":0,
			"byteLength":13932,
			"byteOffset":5504,
			"target":34962
		},
		{
			"buffer":0,
			"byteLength":13932,
			"byteOffset":19436,
			"target":34962
		},
		{
			"buffer":0,
			"byteLength":9288,
			"byteOffset":33368,
			"target":34962
		},
		{
			"buffer":0,
			"byteLength":4644,
			"byteOffset":42656,
			"target":34962
		},
		{
			"buffer":0,
			"byteLength":18576,
			"byteOffset":47300,
			"target":34962
		},
		{
			"buffer":0,
			"byteLength":11082,
			"byteOffset":65876,
			"target":34963
		},
		{
			"buffer":0,
			"byteLength":192,
			"byteOffset":76960
		}
	],
	"samplers":[
		{
			"magFilter":9729,
			"minFilter":9987
		}
	],
	"buffers":[
		{
			"byteLength":77152,
			"uri":"Sword.bin"
		}
	]
}
