{
	"asset":{
		"generator":"Khronos glTF Blender I/O v4.1.63",
		"version":"2.0"
	},
	"scene":0,
	"scenes":[
		{
			"name":"Scene",
			"nodes":[
				0,
				1,
				2,
				3,
				4,
				5,
				6,
				7
			]
		}
	],
	"nodes":[
		{
			"mesh":0,
			"name":"\u5186\u67f1.001",
			"rotation":[
				0,
				-0.2588191330432892,
				0,
				0.9659258127212524
			],
			"scale":[
				10.000000953674316,
				1,
				10.000000953674316
			],
			"translation":[
				0,
				4.754270553588867,
				-0.019985605031251907
			]
		},
		{
			"mesh":1,
			"name":"\u5186\u67f1.002",
			"rotation":[
				0,
				0.13052619993686676,
				0,
				0.9914448857307434
			],
			"scale":[
				10,
				1,
				10
			],
			"translation":[
				0.05402190610766411,
				25.292680740356445,
				0.029735561460256577
			]
		},
		{
			"mesh":2,
			"name":"\u5186\u67f1.003",
			"rotation":[
				0,
				0.13052619993686676,
				0,
				0.9914448857307434
			],
			"scale":[
				10,
				1,
				10
			],
			"translation":[
				0.05402190610766411,
				17.296297073364258,
				0.029735561460256577
			]
		},
		{
			"mesh":3,
			"name":"\u5186\u67f1.004",
			"rotation":[
				0,
				-0.2588191330432892,
				0,
				0.9659258127212524
			],
			"scale":[
				10.000000953674316,
				1,
				10.000000953674316
			],
			"translation":[
				0,
				12.750100135803223,
				0
			]
		},
		{
			"mesh":4,
			"name":"\u5186\u67f1.005",
			"rotation":[
				0,
				0.13052619993686676,
				0,
				0.9914448857307434
			],
			"scale":[
				10,
				1,
				10
			],
			"translation":[
				0.05402190610766411,
				9.310102462768555,
				0.029735999181866646
			]
		},
		{
			"mesh":5,
			"name":"\u5186\u67f1.006",
			"rotation":[
				0,
				-0.2588191330432892,
				0,
				0.9659258127212524
			],
			"scale":[
				10.000000953674316,
				1,
				10.000000953674316
			],
			"translation":[
				0,
				20.73685073852539,
				0
			]
		},
		{
			"mesh":6,
			"name":"\u5186\u67f1.007",
			"rotation":[
				-0.2588191330432892,
				0,
				0.9659258127212524,
				4.2221955709464964e-08
			],
			"scale":[
				10.000000953674316,
				1,
				10.000000953674316
			],
			"translation":[
				-0.0806238055229187,
				28.474895477294922,
				0.01994127407670021
			]
		},
		{
			"mesh":7,
			"name":"\u5186\u67f1.008",
			"rotation":[
				0,
				0.13052619993686676,
				0,
				0.9914448857307434
			],
			"scale":[
				10,
				1,
				10
			],
			"translation":[
				0.054021939635276794,
				2.299410104751587,
				0.029735589399933815
			]
		}
	],
	"materials":[
		{
			"doubleSided":true,
			"name":"\u30de\u30c6\u30ea\u30a2\u30eb.006",
			"pbrMetallicRoughness":{
				"baseColorTexture":{
					"index":0
				},
				"metallicFactor":0
			}
		},
		{
			"doubleSided":true,
			"name":"\u30de\u30c6\u30ea\u30a2\u30eb.001",
			"pbrMetallicRoughness":{
				"baseColorTexture":{
					"index":1
				},
				"metallicFactor":0
			}
		},
		{
			"doubleSided":true,
			"name":"\u30de\u30c6\u30ea\u30a2\u30eb.002",
			"pbrMetallicRoughness":{
				"baseColorTexture":{
					"index":2
				},
				"metallicFactor":0
			}
		},
		{
			"doubleSided":true,
			"name":"\u30de\u30c6\u30ea\u30a2\u30eb.035",
			"pbrMetallicRoughness":{
				"baseColorTexture":{
					"index":3
				},
				"metallicFactor":0
			}
		},
		{
			"doubleSided":true,
			"name":"\u30de\u30c6\u30ea\u30a2\u30eb.036",
			"pbrMetallicRoughness":{
				"baseColorTexture":{
					"index":4
				},
				"metallicFactor":0
			}
		},
		{
			"doubleSided":true,
			"name":"\u30de\u30c6\u30ea\u30a2\u30eb.037",
			"pbrMetallicRoughness":{
				"baseColorTexture":{
					"index":5
				},
				"metallicFactor":0
			}
		},
		{
			"doubleSided":true,
			"name":"\u30de\u30c6\u30ea\u30a2\u30eb.038",
			"pbrMetallicRoughness":{
				"baseColorTexture":{
					"index":6
				},
				"metallicFactor":0
			}
		},
		{
			"doubleSided":true,
			"name":"\u30de\u30c6\u30ea\u30a2\u30eb.039",
			"pbrMetallicRoughness":{
				"baseColorTexture":{
					"index":7
				},
				"metallicFactor":0
			}
		}
	],
	"meshes":[
		{
			"name":"\u5186\u67f1.003",
			"primitives":[
				{
					"attributes":{
						"POSITION":0,
						"NORMAL":1,
						"TEXCOORD_0":2
					},
					"indices":3,
					"material":0
				}
			]
		},
		{
			"name":"\u5186\u67f1.002",
			"primitives":[
				{
					"attributes":{
						"POSITION":4,
						"NORMAL":5,
						"TEXCOORD_0":6
					},
					"indices":7,
					"material":1
				}
			]
		},
		{
			"name":"\u5186\u67f1.005",
			"primitives":[
				{
					"attributes":{
						"POSITION":8,
						"NORMAL":9,
						"TEXCOORD_0":10
					},
					"indices":7,
					"material":2
				}
			]
		},
		{
			"name":"\u5186\u67f1.006",
			"primitives":[
				{
					"attributes":{
						"POSITION":11,
						"NORMAL":12,
						"TEXCOORD_0":13
					},
					"indices":14,
					"material":3
				}
			]
		},
		{
			"name":"\u5186\u67f1.007",
			"primitives":[
				{
					"attributes":{
						"POSITION":15,
						"NORMAL":16,
						"TEXCOORD_0":17
					},
					"indices":7,
					"material":4
				}
			]
		},
		{
			"name":"\u5186\u67f1.008",
			"primitives":[
				{
					"attributes":{
						"POSITION":18,
						"NORMAL":19,
						"TEXCOORD_0":20
					},
					"indices":14,
					"material":5
				}
			]
		},
		{
			"name":"\u5186\u67f1.009",
			"primitives":[
				{
					"attributes":{
						"POSITION":21,
						"NORMAL":22,
						"TEXCOORD_0":23
					},
					"indices":24,
					"material":6
				}
			]
		},
		{
			"name":"\u5186\u67f1.011",
			"primitives":[
				{
					"attributes":{
						"POSITION":25,
						"NORMAL":26,
						"TEXCOORD_0":27
					},
					"indices":28,
					"material":7
				}
			]
		}
	],
	"textures":[
		{
			"sampler":0,
			"source":0
		},
		{
			"sampler":0,
			"source":0
		},
		{
			"sampler":0,
			"source":0
		},
		{
			"sampler":0,
			"source":0
		},
		{
			"sampler":0,
			"source":0
		},
		{
			"sampler":0,
			"source":0
		},
		{
			"sampler":0,
			"source":0
		},
		{
			"sampler":0,
			"source":0
		}
	],
	"images":[
		{
			"mimeType":"image/png",
			"name":"dif_wall_01",
			"uri":"dif_wall_01.png"
		}
	],
	"accessors":[
		{
			"bufferView":0,
			"componentType":5126,
			"count":1894,
			"max":[
				0.9996159076690674,
				2.2457275390625,
				0.9961065053939819
			],
			"min":[
				-1.000382661819458,
				-0.7546443939208984,
				-1.0038920640945435
			],
			"type":"VEC3"
		},
		{
			"bufferView":1,
			"componentType":5126,
			"count":1894,
			"type":"VEC3"
		},
		{
			"bufferView":2,
			"componentType":5126,
			"count":1894,
			"type":"VEC2"
		},
		{
			"bufferView":3,
			"componentType":5123,
			"count":4080,
			"type":"SCALAR"
		},
		{
			"bufferView":4,
			"componentType":5126,
			"count":1894,
			"max":[
				0.9991623759269714,
				1.6950116157531738,
				0.9915015697479248
			],
			"min":[
				-1.0008362531661987,
				-2.3049845695495605,
				-1.0084969997406006
			],
			"type":"VEC3"
		},
		{
			"bufferView":5,
			"componentType":5126,
			"count":1894,
			"type":"VEC3"
		},
		{
			"bufferView":6,
			"componentType":5126,
			"count":1894,
			"type":"VEC2"
		},
		{
			"bufferView":7,
			"componentType":5123,
			"count":4080,
			"type":"SCALAR"
		},
		{
			"bufferView":8,
			"componentType":5126,
			"count":1894,
			"max":[
				0.9991623759269714,
				1.6950116157531738,
				0.9915015697479248
			],
			"min":[
				-1.0008362531661987,
				-2.3049845695495605,
				-1.0084969997406006
			],
			"type":"VEC3"
		},
		{
			"bufferView":9,
			"componentType":5126,
			"count":1894,
			"type":"VEC3"
		},
		{
			"bufferView":10,
			"componentType":5126,
			"count":1894,
			"type":"VEC2"
		},
		{
			"bufferView":11,
			"componentType":5126,
			"count":1894,
			"max":[
				0.9996159076690674,
				2.2457275390625,
				0.9961065053939819
			],
			"min":[
				-1.000382661819458,
				-1.7542705535888672,
				-1.0038920640945435
			],
			"type":"VEC3"
		},
		{
			"bufferView":12,
			"componentType":5126,
			"count":1894,
			"type":"VEC3"
		},
		{
			"bufferView":13,
			"componentType":5126,
			"count":1894,
			"type":"VEC2"
		},
		{
			"bufferView":14,
			"componentType":5123,
			"count":4080,
			"type":"SCALAR"
		},
		{
			"bufferView":15,
			"componentType":5126,
			"count":1894,
			"max":[
				0.9991623759269714,
				1.6950116157531738,
				0.9915015697479248
			],
			"min":[
				-1.0008362531661987,
				-2.3049845695495605,
				-1.0084969997406006
			],
			"type":"VEC3"
		},
		{
			"bufferView":16,
			"componentType":5126,
			"count":1894,
			"type":"VEC3"
		},
		{
			"bufferView":17,
			"componentType":5126,
			"count":1894,
			"type":"VEC2"
		},
		{
			"bufferView":18,
			"componentType":5126,
			"count":1894,
			"max":[
				0.9996159076690674,
				2.2457275390625,
				0.9961065053939819
			],
			"min":[
				-1.000382661819458,
				-1.7542705535888672,
				-1.0038920640945435
			],
			"type":"VEC3"
		},
		{
			"bufferView":19,
			"componentType":5126,
			"count":1894,
			"type":"VEC3"
		},
		{
			"bufferView":20,
			"componentType":5126,
			"count":1894,
			"type":"VEC2"
		},
		{
			"bufferView":21,
			"componentType":5126,
			"count":730,
			"max":[
				0.9958642721176147,
				1.4792895317077637,
				0.9899968504905701
			],
			"min":[
				-1.0041342973709106,
				-2.523926258087158,
				-1.0100016593933105
			],
			"type":"VEC3"
		},
		{
			"bufferView":22,
			"componentType":5126,
			"count":730,
			"type":"VEC3"
		},
		{
			"bufferView":23,
			"componentType":5126,
			"count":730,
			"type":"VEC2"
		},
		{
			"bufferView":24,
			"componentType":5123,
			"count":1560,
			"type":"SCALAR"
		},
		{
			"bufferView":25,
			"componentType":5126,
			"count":1894,
			"max":[
				0.9991623759269714,
				1.695011854171753,
				0.9915015697479248
			],
			"min":[
				-1.0008362531661987,
				-2.3049843311309814,
				-1.0084969997406006
			],
			"type":"VEC3"
		},
		{
			"bufferView":26,
			"componentType":5126,
			"count":1894,
			"type":"VEC3"
		},
		{
			"bufferView":27,
			"componentType":5126,
			"count":1894,
			"type":"VEC2"
		},
		{
			"bufferView":28,
			"componentType":5123,
			"count":4080,
			"type":"SCALAR"
		}
	],
	"bufferViews":[
		{
			"buffer":0,
			"byteLength":22728,
			"byteOffset":0,
			"target":34962
		},
		{
			"buffer":0,
			"byteLength":22728,
			"byteOffset":22728,
			"target":34962
		},
		{
			"buffer":0,
			"byteLength":15152,
			"byteOffset":45456,
			"target":34962
		},
		{
			"buffer":0,
			"byteLength":8160,
			"byteOffset":60608,
			"target":34963
		},
		{
			"buffer":0,
			"byteLength":22728,
			"byteOffset":68768,
			"target":34962
		},
		{
			"buffer":0,
			"byteLength":22728,
			"byteOffset":91496,
			"target":34962
		},
		{
			"buffer":0,
			"byteLength":15152,
			"byteOffset":114224,
			"target":34962
		},
		{
			"buffer":0,
			"byteLength":8160,
			"byteOffset":129376,
			"target":34963
		},
		{
			"buffer":0,
			"byteLength":22728,
			"byteOffset":137536,
			"target":34962
		},
		{
			"buffer":0,
			"byteLength":22728,
			"byteOffset":160264,
			"target":34962
		},
		{
			"buffer":0,
			"byteLength":15152,
			"byteOffset":182992,
			"target":34962
		},
		{
			"buffer":0,
			"byteLength":22728,
			"byteOffset":198144,
			"target":34962
		},
		{
			"buffer":0,
			"byteLength":22728,
			"byteOffset":220872,
			"target":34962
		},
		{
			"buffer":0,
			"byteLength":15152,
			"byteOffset":243600,
			"target":34962
		},
		{
			"buffer":0,
			"byteLength":8160,
			"byteOffset":258752,
			"target":34963
		},
		{
			"buffer":0,
			"byteLength":22728,
			"byteOffset":266912,
			"target":34962
		},
		{
			"buffer":0,
			"byteLength":22728,
			"byteOffset":289640,
			"target":34962
		},
		{
			"buffer":0,
			"byteLength":15152,
			"byteOffset":312368,
			"target":34962
		},
		{
			"buffer":0,
			"byteLength":22728,
			"byteOffset":327520,
			"target":34962
		},
		{
			"buffer":0,
			"byteLength":22728,
			"byteOffset":350248,
			"target":34962
		},
		{
			"buffer":0,
			"byteLength":15152,
			"byteOffset":372976,
			"target":34962
		},
		{
			"buffer":0,
			"byteLength":8760,
			"byteOffset":388128,
			"target":34962
		},
		{
			"buffer":0,
			"byteLength":8760,
			"byteOffset":396888,
			"target":34962
		},
		{
			"buffer":0,
			"byteLength":5840,
			"byteOffset":405648,
			"target":34962
		},
		{
			"buffer":0,
			"byteLength":3120,
			"byteOffset":411488,
			"target":34963
		},
		{
			"buffer":0,
			"byteLength":22728,
			"byteOffset":414608,
			"target":34962
		},
		{
			"buffer":0,
			"byteLength":22728,
			"byteOffset":437336,
			"target":34962
		},
		{
			"buffer":0,
			"byteLength":15152,
			"byteOffset":460064,
			"target":34962
		},
		{
			"buffer":0,
			"byteLength":8160,
			"byteOffset":475216,
			"target":34963
		}
	],
	"samplers":[
		{
			"magFilter":9729,
			"minFilter":9987
		}
	],
	"buffers":[
		{
			"byteLength":483376,
			"uri":"Wall.bin"
		}
	]
}
