{
	"asset":{
		"generator":"Khronos glTF Blender I/O v4.1.62",
		"version":"2.0"
	},
	"scene":0,
	"scenes":[
		{
			"name":"Scene",
			"nodes":[
				0,
				1,
				2,
				3,
				4,
				5,
				6,
				7,
				8
			]
		}
	],
	"nodes":[
		{
			"mesh":0,
			"name":"\u5186\u67f1.008",
			"rotation":[
				0,
				0.13052619993686676,
				0,
				0.9914448857307434
			],
			"scale":[
				10,
				1,
				10
			],
			"translation":[
				0.054021939635276794,
				2.299410104751587,
				0.029735589399933815
			]
		},
		{
			"mesh":1,
			"name":"\u5186\u67f1.001",
			"rotation":[
				0,
				0.23344539105892181,
				0,
				0.972369909286499
			],
			"scale":[
				10,
				1,
				10
			],
			"translation":[
				0.054021939635276794,
				6.299409866333008,
				0.029735589399933815
			]
		},
		{
			"mesh":2,
			"name":"\u5186\u67f1.002",
			"rotation":[
				0,
				0.13052619993686676,
				0,
				0.9914448857307434
			],
			"scale":[
				10,
				1,
				10
			],
			"translation":[
				0.054021939635276794,
				10.299409866333008,
				0.029735589399933815
			]
		},
		{
			"mesh":3,
			"name":"\u5186\u67f1.003",
			"rotation":[
				0,
				0.23344539105892181,
				0,
				0.972369909286499
			],
			"scale":[
				10,
				1,
				10
			],
			"translation":[
				0.054021939635276794,
				14.299409866333008,
				0.029735589399933815
			]
		},
		{
			"mesh":4,
			"name":"\u5186\u67f1.004",
			"rotation":[
				0,
				0.13052619993686676,
				0,
				0.9914448857307434
			],
			"scale":[
				10,
				1,
				10
			],
			"translation":[
				0.054021939635276794,
				18.299409866333008,
				0.029735589399933815
			]
		},
		{
			"mesh":5,
			"name":"\u5186\u67f1.005",
			"rotation":[
				0,
				0.23344539105892181,
				0,
				0.972369909286499
			],
			"scale":[
				10,
				1,
				10
			],
			"translation":[
				0.054021939635276794,
				30.299409866333008,
				0.029735589399933815
			]
		},
		{
			"mesh":6,
			"name":"\u5186\u67f1.006",
			"rotation":[
				0,
				0.13052619993686676,
				0,
				0.9914448857307434
			],
			"scale":[
				10,
				1,
				10
			],
			"translation":[
				0.054021939635276794,
				26.299409866333008,
				0.029735589399933815
			]
		},
		{
			"mesh":7,
			"name":"\u5186\u67f1.007",
			"rotation":[
				0,
				0.23344539105892181,
				0,
				0.972369909286499
			],
			"scale":[
				10,
				1,
				10
			],
			"translation":[
				0.054021939635276794,
				22.299409866333008,
				0.029735589399933815
			]
		},
		{
			"mesh":8,
			"name":"COL01",
			"rotation":[
				0,
				0.13052619993686676,
				0,
				0.9914448857307434
			],
			"scale":[
				10.214333534240723,
				1,
				10.214333534240723
			],
			"translation":[
				0,
				32.99479675292969,
				0
			]
		}
	],
	"materials":[
		{
			"doubleSided":true,
			"name":"\u30de\u30c6\u30ea\u30a2\u30eb.039",
			"normalTexture":{
				"index":0
			},
			"pbrMetallicRoughness":{
				"baseColorTexture":{
					"index":1
				},
				"metallicFactor":0
			}
		},
		{
			"doubleSided":true,
			"name":"\u30de\u30c6\u30ea\u30a2\u30eb.011",
			"normalTexture":{
				"index":2
			},
			"pbrMetallicRoughness":{
				"baseColorTexture":{
					"index":3
				},
				"metallicFactor":0
			}
		},
		{
			"doubleSided":true,
			"name":"\u30de\u30c6\u30ea\u30a2\u30eb.012",
			"normalTexture":{
				"index":4
			},
			"pbrMetallicRoughness":{
				"baseColorTexture":{
					"index":5
				},
				"metallicFactor":0
			}
		},
		{
			"doubleSided":true,
			"name":"\u30de\u30c6\u30ea\u30a2\u30eb.013",
			"normalTexture":{
				"index":6
			},
			"pbrMetallicRoughness":{
				"baseColorTexture":{
					"index":7
				},
				"metallicFactor":0
			}
		},
		{
			"doubleSided":true,
			"name":"\u30de\u30c6\u30ea\u30a2\u30eb.014",
			"normalTexture":{
				"index":8
			},
			"pbrMetallicRoughness":{
				"baseColorTexture":{
					"index":9
				},
				"metallicFactor":0
			}
		},
		{
			"doubleSided":true,
			"name":"\u30de\u30c6\u30ea\u30a2\u30eb.015",
			"normalTexture":{
				"index":10
			},
			"pbrMetallicRoughness":{
				"baseColorTexture":{
					"index":11
				},
				"metallicFactor":0
			}
		},
		{
			"doubleSided":true,
			"name":"\u30de\u30c6\u30ea\u30a2\u30eb.016",
			"normalTexture":{
				"index":12
			},
			"pbrMetallicRoughness":{
				"baseColorTexture":{
					"index":13
				},
				"metallicFactor":0
			}
		},
		{
			"doubleSided":true,
			"name":"\u30de\u30c6\u30ea\u30a2\u30eb.017",
			"normalTexture":{
				"index":14
			},
			"pbrMetallicRoughness":{
				"baseColorTexture":{
					"index":15
				},
				"metallicFactor":0
			}
		}
	],
	"meshes":[
		{
			"name":"\u5186\u67f1.011",
			"primitives":[
				{
					"attributes":{
						"POSITION":0,
						"NORMAL":1,
						"TEXCOORD_0":2
					},
					"indices":3,
					"material":0
				}
			]
		},
		{
			"name":"\u5186\u67f1.016",
			"primitives":[
				{
					"attributes":{
						"POSITION":4,
						"NORMAL":5,
						"TEXCOORD_0":6
					},
					"indices":3,
					"material":1
				}
			]
		},
		{
			"name":"\u5186\u67f1.017",
			"primitives":[
				{
					"attributes":{
						"POSITION":7,
						"NORMAL":8,
						"TEXCOORD_0":9
					},
					"indices":3,
					"material":2
				}
			]
		},
		{
			"name":"\u5186\u67f1.018",
			"primitives":[
				{
					"attributes":{
						"POSITION":10,
						"NORMAL":11,
						"TEXCOORD_0":12
					},
					"indices":3,
					"material":3
				}
			]
		},
		{
			"name":"\u5186\u67f1.019",
			"primitives":[
				{
					"attributes":{
						"POSITION":13,
						"NORMAL":14,
						"TEXCOORD_0":15
					},
					"indices":3,
					"material":4
				}
			]
		},
		{
			"name":"\u5186\u67f1.020",
			"primitives":[
				{
					"attributes":{
						"POSITION":16,
						"NORMAL":17,
						"TEXCOORD_0":18
					},
					"indices":3,
					"material":5
				}
			]
		},
		{
			"name":"\u5186\u67f1.021",
			"primitives":[
				{
					"attributes":{
						"POSITION":19,
						"NORMAL":20,
						"TEXCOORD_0":21
					},
					"indices":3,
					"material":6
				}
			]
		},
		{
			"name":"\u5186\u67f1.022",
			"primitives":[
				{
					"attributes":{
						"POSITION":22,
						"NORMAL":23,
						"TEXCOORD_0":24
					},
					"indices":3,
					"material":7
				}
			]
		},
		{
			"name":"\u5186\u67f1.002",
			"primitives":[
				{
					"attributes":{
						"POSITION":25,
						"NORMAL":26,
						"TEXCOORD_0":27
					},
					"indices":28
				}
			]
		}
	],
	"textures":[
		{
			"sampler":0,
			"source":0
		},
		{
			"sampler":0,
			"source":1
		},
		{
			"sampler":0,
			"source":0
		},
		{
			"sampler":0,
			"source":1
		},
		{
			"sampler":0,
			"source":0
		},
		{
			"sampler":0,
			"source":1
		},
		{
			"sampler":0,
			"source":0
		},
		{
			"sampler":0,
			"source":1
		},
		{
			"sampler":0,
			"source":0
		},
		{
			"sampler":0,
			"source":1
		},
		{
			"sampler":0,
			"source":0
		},
		{
			"sampler":0,
			"source":1
		},
		{
			"sampler":0,
			"source":0
		},
		{
			"sampler":0,
			"source":1
		},
		{
			"sampler":0,
			"source":0
		},
		{
			"sampler":0,
			"source":1
		}
	],
	"images":[
		{
			"mimeType":"image/png",
			"name":"nmap_wall_01",
			"uri":"nmap_wall_01.png"
		},
		{
			"mimeType":"image/png",
			"name":"dif_wall_01",
			"uri":"dif_wall_01.png"
		}
	],
	"accessors":[
		{
			"bufferView":0,
			"componentType":5126,
			"count":1978,
			"max":[
				0.9991623759269714,
				1.695011854171753,
				0.9915015697479248
			],
			"min":[
				-1.0008362531661987,
				-2.3049843311309814,
				-1.0084969997406006
			],
			"type":"VEC3"
		},
		{
			"bufferView":1,
			"componentType":5126,
			"count":1978,
			"type":"VEC3"
		},
		{
			"bufferView":2,
			"componentType":5126,
			"count":1978,
			"type":"VEC2"
		},
		{
			"bufferView":3,
			"componentType":5123,
			"count":4080,
			"type":"SCALAR"
		},
		{
			"bufferView":4,
			"componentType":5126,
			"count":1978,
			"max":[
				0.9991623759269714,
				1.695011854171753,
				0.9915015697479248
			],
			"min":[
				-1.0008362531661987,
				-2.3049843311309814,
				-1.0084969997406006
			],
			"type":"VEC3"
		},
		{
			"bufferView":5,
			"componentType":5126,
			"count":1978,
			"type":"VEC3"
		},
		{
			"bufferView":6,
			"componentType":5126,
			"count":1978,
			"type":"VEC2"
		},
		{
			"bufferView":7,
			"componentType":5126,
			"count":1978,
			"max":[
				0.9991623759269714,
				1.695011854171753,
				0.9915015697479248
			],
			"min":[
				-1.0008362531661987,
				-2.3049843311309814,
				-1.0084969997406006
			],
			"type":"VEC3"
		},
		{
			"bufferView":8,
			"componentType":5126,
			"count":1978,
			"type":"VEC3"
		},
		{
			"bufferView":9,
			"componentType":5126,
			"count":1978,
			"type":"VEC2"
		},
		{
			"bufferView":10,
			"componentType":5126,
			"count":1978,
			"max":[
				0.9991623759269714,
				1.695011854171753,
				0.9915015697479248
			],
			"min":[
				-1.0008362531661987,
				-2.3049843311309814,
				-1.0084969997406006
			],
			"type":"VEC3"
		},
		{
			"bufferView":11,
			"componentType":5126,
			"count":1978,
			"type":"VEC3"
		},
		{
			"bufferView":12,
			"componentType":5126,
			"count":1978,
			"type":"VEC2"
		},
		{
			"bufferView":13,
			"componentType":5126,
			"count":1978,
			"max":[
				0.9991623759269714,
				1.695011854171753,
				0.9915015697479248
			],
			"min":[
				-1.0008362531661987,
				-2.3049843311309814,
				-1.0084969997406006
			],
			"type":"VEC3"
		},
		{
			"bufferView":14,
			"componentType":5126,
			"count":1978,
			"type":"VEC3"
		},
		{
			"bufferView":15,
			"componentType":5126,
			"count":1978,
			"type":"VEC2"
		},
		{
			"bufferView":16,
			"componentType":5126,
			"count":1978,
			"max":[
				0.9991623759269714,
				1.695011854171753,
				0.9915015697479248
			],
			"min":[
				-1.0008362531661987,
				-2.3049843311309814,
				-1.0084969997406006
			],
			"type":"VEC3"
		},
		{
			"bufferView":17,
			"componentType":5126,
			"count":1978,
			"type":"VEC3"
		},
		{
			"bufferView":18,
			"componentType":5126,
			"count":1978,
			"type":"VEC2"
		},
		{
			"bufferView":19,
			"componentType":5126,
			"count":1978,
			"max":[
				0.9991623759269714,
				1.695011854171753,
				0.9915015697479248
			],
			"min":[
				-1.0008362531661987,
				-2.3049843311309814,
				-1.0084969997406006
			],
			"type":"VEC3"
		},
		{
			"bufferView":20,
			"componentType":5126,
			"count":1978,
			"type":"VEC3"
		},
		{
			"bufferView":21,
			"componentType":5126,
			"count":1978,
			"type":"VEC2"
		},
		{
			"bufferView":22,
			"componentType":5126,
			"count":1978,
			"max":[
				0.9991623759269714,
				1.695011854171753,
				0.9915015697479248
			],
			"min":[
				-1.0008362531661987,
				-2.3049843311309814,
				-1.0084969997406006
			],
			"type":"VEC3"
		},
		{
			"bufferView":23,
			"componentType":5126,
			"count":1978,
			"type":"VEC3"
		},
		{
			"bufferView":24,
			"componentType":5126,
			"count":1978,
			"type":"VEC2"
		},
		{
			"bufferView":25,
			"componentType":5126,
			"count":384,
			"max":[
				1,
				1,
				1
			],
			"min":[
				-1,
				-1,
				-1
			],
			"type":"VEC3"
		},
		{
			"bufferView":26,
			"componentType":5126,
			"count":384,
			"type":"VEC3"
		},
		{
			"bufferView":27,
			"componentType":5126,
			"count":384,
			"type":"VEC2"
		},
		{
			"bufferView":28,
			"componentType":5123,
			"count":768,
			"type":"SCALAR"
		}
	],
	"bufferViews":[
		{
			"buffer":0,
			"byteLength":23736,
			"byteOffset":0,
			"target":34962
		},
		{
			"buffer":0,
			"byteLength":23736,
			"byteOffset":23736,
			"target":34962
		},
		{
			"buffer":0,
			"byteLength":15824,
			"byteOffset":47472,
			"target":34962
		},
		{
			"buffer":0,
			"byteLength":8160,
			"byteOffset":63296,
			"target":34963
		},
		{
			"buffer":0,
			"byteLength":23736,
			"byteOffset":71456,
			"target":34962
		},
		{
			"buffer":0,
			"byteLength":23736,
			"byteOffset":95192,
			"target":34962
		},
		{
			"buffer":0,
			"byteLength":15824,
			"byteOffset":118928,
			"target":34962
		},
		{
			"buffer":0,
			"byteLength":23736,
			"byteOffset":134752,
			"target":34962
		},
		{
			"buffer":0,
			"byteLength":23736,
			"byteOffset":158488,
			"target":34962
		},
		{
			"buffer":0,
			"byteLength":15824,
			"byteOffset":182224,
			"target":34962
		},
		{
			"buffer":0,
			"byteLength":23736,
			"byteOffset":198048,
			"target":34962
		},
		{
			"buffer":0,
			"byteLength":23736,
			"byteOffset":221784,
			"target":34962
		},
		{
			"buffer":0,
			"byteLength":15824,
			"byteOffset":245520,
			"target":34962
		},
		{
			"buffer":0,
			"byteLength":23736,
			"byteOffset":261344,
			"target":34962
		},
		{
			"buffer":0,
			"byteLength":23736,
			"byteOffset":285080,
			"target":34962
		},
		{
			"buffer":0,
			"byteLength":15824,
			"byteOffset":308816,
			"target":34962
		},
		{
			"buffer":0,
			"byteLength":23736,
			"byteOffset":324640,
			"target":34962
		},
		{
			"buffer":0,
			"byteLength":23736,
			"byteOffset":348376,
			"target":34962
		},
		{
			"buffer":0,
			"byteLength":15824,
			"byteOffset":372112,
			"target":34962
		},
		{
			"buffer":0,
			"byteLength":23736,
			"byteOffset":387936,
			"target":34962
		},
		{
			"buffer":0,
			"byteLength":23736,
			"byteOffset":411672,
			"target":34962
		},
		{
			"buffer":0,
			"byteLength":15824,
			"byteOffset":435408,
			"target":34962
		},
		{
			"buffer":0,
			"byteLength":23736,
			"byteOffset":451232,
			"target":34962
		},
		{
			"buffer":0,
			"byteLength":23736,
			"byteOffset":474968,
			"target":34962
		},
		{
			"buffer":0,
			"byteLength":15824,
			"byteOffset":498704,
			"target":34962
		},
		{
			"buffer":0,
			"byteLength":4608,
			"byteOffset":514528,
			"target":34962
		},
		{
			"buffer":0,
			"byteLength":4608,
			"byteOffset":519136,
			"target":34962
		},
		{
			"buffer":0,
			"byteLength":3072,
			"byteOffset":523744,
			"target":34962
		},
		{
			"buffer":0,
			"byteLength":1536,
			"byteOffset":526816,
			"target":34963
		}
	],
	"samplers":[
		{
			"magFilter":9729,
			"minFilter":9987
		}
	],
	"buffers":[
		{
			"byteLength":528352,
			"uri":"Wall.bin"
		}
	]
}
