{
	"asset":{
		"generator":"Khronos glTF Blender I/O v4.1.62",
		"version":"2.0"
	},
	"scene":0,
	"scenes":[
		{
			"name":"Scene",
			"nodes":[
				4
			]
		}
	],
	"nodes":[
		{
			"name":"sword.Bottom",
			"rotation":[
				-4.440892098500626e-16,
				0,
				-6.705561294626133e-23,
				1
			],
			"translation":[
				-4.423446649250542e-23,
				0.8726134300231934,
				2.929516387638201e-16
			]
		},
		{
			"children":[
				0
			],
			"name":"sword.Center",
			"rotation":[
				-4.957790178394816e-09,
				0,
				-7.486054953218641e-16,
				1
			],
			"translation":[
				0,
				1.0812883377075195,
				8.881784197001252e-16
			]
		},
		{
			"children":[
				1
			],
			"name":"sword.Top",
			"rotation":[
				-5.338507591545749e-08,
				-0.7071067690849304,
				0.7071067690849304,
				5.338507591545749e-08
			],
			"translation":[
				0,
				0,
				2.283735990524292
			]
		},
		{
			"mesh":0,
			"name":"\u5186\u67f1",
			"skin":0
		},
		{
			"children":[
				3,
				2
			],
			"name":"\u30a2\u30fc\u30de\u30c1\u30e5\u30a2"
		}
	],
	"materials":[
		{
			"doubleSided":true,
			"name":"\u30de\u30c6\u30ea\u30a2\u30eb",
			"pbrMetallicRoughness":{
				"baseColorFactor":[
					0.39698201417922974,
					0.09307742118835449,
					0.0315566211938858,
					1
				],
				"roughnessFactor":0.5
			}
		}
	],
	"meshes":[
		{
			"name":"\u5186\u67f1",
			"primitives":[
				{
					"attributes":{
						"POSITION":0,
						"NORMAL":1,
						"TEXCOORD_0":2,
						"JOINTS_0":3,
						"WEIGHTS_0":4
					},
					"indices":5,
					"material":0
				}
			]
		}
	],
	"skins":[
		{
			"inverseBindMatrices":6,
			"joints":[
				2,
				1,
				0
			],
			"name":"\u30a2\u30fc\u30de\u30c1\u30e5\u30a2"
		}
	],
	"accessors":[
		{
			"bufferView":0,
			"componentType":5126,
			"count":130,
			"max":[
				0.05624974146485329,
				0.05624982714653015,
				2.3090624809265137
			],
			"min":[
				-0.05624974146485329,
				-0.05624982714653015,
				-0.4267559349536896
			],
			"type":"VEC3"
		},
		{
			"bufferView":1,
			"componentType":5126,
			"count":130,
			"type":"VEC3"
		},
		{
			"bufferView":2,
			"componentType":5126,
			"count":130,
			"type":"VEC2"
		},
		{
			"bufferView":3,
			"componentType":5121,
			"count":130,
			"type":"VEC4"
		},
		{
			"bufferView":4,
			"componentType":5126,
			"count":130,
			"type":"VEC4"
		},
		{
			"bufferView":5,
			"componentType":5123,
			"count":372,
			"type":"SCALAR"
		},
		{
			"bufferView":6,
			"componentType":5126,
			"count":3,
			"type":"MAT4"
		}
	],
	"bufferViews":[
		{
			"buffer":0,
			"byteLength":1560,
			"byteOffset":0,
			"target":34962
		},
		{
			"buffer":0,
			"byteLength":1560,
			"byteOffset":1560,
			"target":34962
		},
		{
			"buffer":0,
			"byteLength":1040,
			"byteOffset":3120,
			"target":34962
		},
		{
			"buffer":0,
			"byteLength":520,
			"byteOffset":4160,
			"target":34962
		},
		{
			"buffer":0,
			"byteLength":2080,
			"byteOffset":4680,
			"target":34962
		},
		{
			"buffer":0,
			"byteLength":744,
			"byteOffset":6760,
			"target":34963
		},
		{
			"buffer":0,
			"byteLength":192,
			"byteOffset":7504
		}
	],
	"buffers":[
		{
			"byteLength":7696,
			"uri":"Wood.bin"
		}
	]
}
