{
	"asset":{
		"generator":"Khronos glTF Blender I/O v4.1.62",
		"version":"2.0"
	},
	"extensionsUsed":[
		"KHR_materials_specular"
	],
	"scene":0,
	"scenes":[
		{
			"name":"Scene",
			"nodes":[
				0,
				2
			]
		}
	],
	"nodes":[
		{
			"mesh":0,
			"name":"EnergySource.001",
			"rotation":[
				1,
				0,
				0,
				5.960464477539063e-08
			],
			"scale":[
				0.024157928302884102,
				0.024157928302884102,
				0.024157928302884102
			]
		},
		{
			"name":"ParryPoint",
			"translation":[
				0,
				25.3475341796875,
				3.0577652978536207e-06
			]
		},
		{
			"children":[
				1
			],
			"mesh":1,
			"name":"Shield",
			"rotation":[
				1,
				0,
				0,
				5.960464477539063e-08
			],
			"scale":[
				0.024157928302884102,
				0.024157928302884102,
				0.024157928302884102
			]
		}
	],
	"materials":[
		{
			"doubleSided":true,
			"extensions":{
				"KHR_materials_specular":{
					"specularColorFactor":[
						2.0,
						2.0,
						2.0
					]
				}
			},
			"name":"DefaultMaterial.002",
			"pbrMetallicRoughness":{
				"baseColorTexture":{
					"index":0
				},
				"roughnessFactor":0.5527864098548889
			}
		}
	],
	"meshes":[
		{
			"name":"EnergySource.001",
			"primitives":[
				{
					"attributes":{
						"POSITION":0,
						"NORMAL":1,
						"TEXCOORD_0":2
					},
					"indices":3,
					"material":0
				}
			]
		},
		{
			"name":"Shield",
			"primitives":[
				{
					"attributes":{
						"POSITION":4,
						"NORMAL":5,
						"TEXCOORD_0":6
					},
					"indices":7,
					"material":0
				}
			]
		}
	],
	"textures":[
		{
			"sampler":0,
			"source":0
		}
	],
	"images":[
		{
			"mimeType":"image/png",
			"name":"DivineShield_AlbedoTransparency",
			"uri":"DivineShield_AlbedoTransparency.png"
		}
	],
	"accessors":[
		{
			"bufferView":0,
			"componentType":5126,
			"count":65,
			"max":[
				4.194125175476074,
				7.597701072692871,
				-13.694491386413574
			],
			"min":[
				-4.132441997528076,
				6.198285102844238,
				-26.17490577697754
			],
			"type":"VEC3"
		},
		{
			"bufferView":1,
			"componentType":5126,
			"count":65,
			"type":"VEC3"
		},
		{
			"bufferView":2,
			"componentType":5126,
			"count":65,
			"type":"VEC2"
		},
		{
			"bufferView":3,
			"componentType":5123,
			"count":336,
			"type":"SCALAR"
		},
		{
			"bufferView":4,
			"componentType":5126,
			"count":1625,
			"max":[
				34.89500045776367,
				6.885563373565674,
				67.22701263427734
			],
			"min":[
				-34.85914611816406,
				-8.422433853149414,
				-49.473506927490234
			],
			"type":"VEC3"
		},
		{
			"bufferView":5,
			"componentType":5126,
			"count":1625,
			"type":"VEC3"
		},
		{
			"bufferView":6,
			"componentType":5126,
			"count":1625,
			"type":"VEC2"
		},
		{
			"bufferView":7,
			"componentType":5123,
			"count":7584,
			"type":"SCALAR"
		}
	],
	"bufferViews":[
		{
			"buffer":0,
			"byteLength":780,
			"byteOffset":0,
			"target":34962
		},
		{
			"buffer":0,
			"byteLength":780,
			"byteOffset":780,
			"target":34962
		},
		{
			"buffer":0,
			"byteLength":520,
			"byteOffset":1560,
			"target":34962
		},
		{
			"buffer":0,
			"byteLength":672,
			"byteOffset":2080,
			"target":34963
		},
		{
			"buffer":0,
			"byteLength":19500,
			"byteOffset":2752,
			"target":34962
		},
		{
			"buffer":0,
			"byteLength":19500,
			"byteOffset":22252,
			"target":34962
		},
		{
			"buffer":0,
			"byteLength":13000,
			"byteOffset":41752,
			"target":34962
		},
		{
			"buffer":0,
			"byteLength":15168,
			"byteOffset":54752,
			"target":34963
		}
	],
	"samplers":[
		{
			"magFilter":9729,
			"minFilter":9987
		}
	],
	"buffers":[
		{
			"byteLength":69920,
			"uri":"Shield.bin"
		}
	]
}
