{
	"asset":{
		"generator":"Khronos glTF Blender I/O v4.1.63",
		"version":"2.0"
	},
	"scene":0,
	"scenes":[
		{
			"name":"Scene",
			"nodes":[
				0,
				1,
				2,
				3,
				4,
				5,
				11,
				12,
				13,
				75
			]
		}
	],
	"nodes":[
		{
			"mesh":0,
			"name":"Weapon14",
			"rotation":[
				0.9998606443405151,
				-0.0017264874186366796,
				0.002439008094370365,
				0.01642640493810177
			],
			"scale":[
				0.8998987078666687,
				0.8998987078666687,
				0.8998987078666687
			]
		},
		{
			"mesh":1,
			"name":"Weapon22",
			"rotation":[
				0.9998606443405151,
				-0.0017264874186366796,
				0.002439008094370365,
				0.01642640493810177
			],
			"scale":[
				0.8998987078666687,
				0.8998987078666687,
				0.8998987078666687
			]
		},
		{
			"mesh":2,
			"name":"Weapon8",
			"rotation":[
				0.9998606443405151,
				-0.0017264874186366796,
				0.002439008094370365,
				0.01642640493810177
			],
			"scale":[
				0.8998987078666687,
				0.8998987078666687,
				0.8998987078666687
			]
		},
		{
			"mesh":3,
			"name":"Weapon16",
			"rotation":[
				0.9998606443405151,
				-0.0017264874186366796,
				0.002439008094370365,
				0.01642640493810177
			],
			"scale":[
				0.8998987078666687,
				0.8998987078666687,
				0.8998987078666687
			]
		},
		{
			"mesh":4,
			"name":"Weapon24",
			"rotation":[
				0.9998606443405151,
				-0.0017264874186366796,
				0.002439008094370365,
				0.01642640493810177
			],
			"scale":[
				0.8998987078666687,
				0.8998987078666687,
				0.8998987078666687
			]
		},
		{
			"mesh":5,
			"name":"Weapon10",
			"rotation":[
				0.9998606443405151,
				-0.0017264874186366796,
				0.002439008094370365,
				0.01642640493810177
			],
			"scale":[
				0.8998987078666687,
				0.8998987078666687,
				0.8998987078666687
			]
		},
		{
			"mesh":6,
			"name":"Weapon2"
		},
		{
			"mesh":7,
			"name":"Weapon26"
		},
		{
			"mesh":8,
			"name":"Weapon28"
		},
		{
			"mesh":9,
			"name":"Weapon4"
		},
		{
			"mesh":10,
			"name":"Weapon6"
		},
		{
			"children":[
				6,
				7,
				8,
				9,
				10
			],
			"mesh":11,
			"name":"Weapon18",
			"rotation":[
				0.9998606443405151,
				-0.0017264874186366796,
				0.002439008094370365,
				0.01642640493810177
			],
			"scale":[
				0.8998987078666687,
				0.8998987078666687,
				0.8998987078666687
			]
		},
		{
			"mesh":12,
			"name":"Weapon12",
			"rotation":[
				0.9998606443405151,
				-0.0017264874186366796,
				0.002439008094370365,
				0.01642640493810177
			],
			"scale":[
				0.8998987078666687,
				0.8998987078666687,
				0.8998987078666687
			]
		},
		{
			"mesh":13,
			"name":"Weapon20",
			"rotation":[
				0.9998606443405151,
				-0.0017264874186366796,
				0.002439008094370365,
				0.01642640493810177
			],
			"scale":[
				0.8998987078666687,
				0.8998987078666687,
				0.8998987078666687
			]
		},
		{
			"name":"Character1_Ctrl_LeftToeBase"
		},
		{
			"children":[
				14
			],
			"name":"Character1_Ctrl_LeftFoot"
		},
		{
			"children":[
				15
			],
			"name":"Character1_Ctrl_LeftLeg"
		},
		{
			"children":[
				16
			],
			"name":"Character1_Ctrl_LeftUpLeg"
		},
		{
			"name":"Character1_Ctrl_RightToeBase"
		},
		{
			"children":[
				18
			],
			"name":"Character1_Ctrl_RightFoot"
		},
		{
			"children":[
				19
			],
			"name":"Character1_Ctrl_RightLeg"
		},
		{
			"children":[
				20
			],
			"name":"Character1_Ctrl_RightUpLeg"
		},
		{
			"name":"Character1_Ctrl_LeftHandIndex4"
		},
		{
			"children":[
				22
			],
			"name":"Character1_Ctrl_LeftHandIndex3"
		},
		{
			"children":[
				23
			],
			"name":"Character1_Ctrl_LeftHandIndex2"
		},
		{
			"children":[
				24
			],
			"name":"Character1_Ctrl_LeftHandIndex1"
		},
		{
			"name":"Character1_Ctrl_LeftHandMiddle4"
		},
		{
			"children":[
				26
			],
			"name":"Character1_Ctrl_LeftHandMiddle3"
		},
		{
			"children":[
				27
			],
			"name":"Character1_Ctrl_LeftHandMiddle2"
		},
		{
			"children":[
				28
			],
			"name":"Character1_Ctrl_LeftHandMiddle1"
		},
		{
			"name":"Character1_Ctrl_LeftHandPinky4"
		},
		{
			"children":[
				30
			],
			"name":"Character1_Ctrl_LeftHandPinky3"
		},
		{
			"children":[
				31
			],
			"name":"Character1_Ctrl_LeftHandPinky2"
		},
		{
			"children":[
				32
			],
			"name":"Character1_Ctrl_LeftHandPinky1"
		},
		{
			"name":"Character1_Ctrl_LeftHandRing4"
		},
		{
			"children":[
				34
			],
			"name":"Character1_Ctrl_LeftHandRing3"
		},
		{
			"children":[
				35
			],
			"name":"Character1_Ctrl_LeftHandRing2"
		},
		{
			"children":[
				36
			],
			"name":"Character1_Ctrl_LeftHandRing1"
		},
		{
			"name":"Character1_Ctrl_LeftHandThumb4"
		},
		{
			"children":[
				38
			],
			"name":"Character1_Ctrl_LeftHandThumb3"
		},
		{
			"children":[
				39
			],
			"name":"Character1_Ctrl_LeftHandThumb2"
		},
		{
			"children":[
				40
			],
			"name":"Character1_Ctrl_LeftHandThumb1"
		},
		{
			"children":[
				25,
				29,
				33,
				37,
				41
			],
			"name":"Character1_Ctrl_LeftHand"
		},
		{
			"children":[
				42
			],
			"name":"Character1_Ctrl_LeftForeArm"
		},
		{
			"children":[
				43
			],
			"name":"Character1_Ctrl_LeftArm"
		},
		{
			"children":[
				44
			],
			"name":"Character1_Ctrl_LeftShoulder"
		},
		{
			"name":"Character1_Ctrl_Head"
		},
		{
			"children":[
				46
			],
			"name":"Character1_Ctrl_Neck"
		},
		{
			"name":"Character1_Ctrl_RightHandIndex4"
		},
		{
			"children":[
				48
			],
			"name":"Character1_Ctrl_RightHandIndex3"
		},
		{
			"children":[
				49
			],
			"name":"Character1_Ctrl_RightHandIndex2"
		},
		{
			"children":[
				50
			],
			"name":"Character1_Ctrl_RightHandIndex1"
		},
		{
			"name":"Character1_Ctrl_RightHandMiddle4"
		},
		{
			"children":[
				52
			],
			"name":"Character1_Ctrl_RightHandMiddle3"
		},
		{
			"children":[
				53
			],
			"name":"Character1_Ctrl_RightHandMiddle2"
		},
		{
			"children":[
				54
			],
			"name":"Character1_Ctrl_RightHandMiddle1"
		},
		{
			"name":"Character1_Ctrl_RightHandPinky4"
		},
		{
			"children":[
				56
			],
			"name":"Character1_Ctrl_RightHandPinky3"
		},
		{
			"children":[
				57
			],
			"name":"Character1_Ctrl_RightHandPinky2"
		},
		{
			"children":[
				58
			],
			"name":"Character1_Ctrl_RightHandPinky1"
		},
		{
			"name":"Character1_Ctrl_RightHandRing4"
		},
		{
			"children":[
				60
			],
			"name":"Character1_Ctrl_RightHandRing3"
		},
		{
			"children":[
				61
			],
			"name":"Character1_Ctrl_RightHandRing2"
		},
		{
			"children":[
				62
			],
			"name":"Character1_Ctrl_RightHandRing1"
		},
		{
			"name":"Character1_Ctrl_RightHandThumb4"
		},
		{
			"children":[
				64
			],
			"name":"Character1_Ctrl_RightHandThumb3"
		},
		{
			"children":[
				65
			],
			"name":"Character1_Ctrl_RightHandThumb2"
		},
		{
			"children":[
				66
			],
			"name":"Character1_Ctrl_RightHandThumb1"
		},
		{
			"children":[
				51,
				55,
				59,
				63,
				67
			],
			"name":"Character1_Ctrl_RightHand"
		},
		{
			"children":[
				68
			],
			"name":"Character1_Ctrl_RightForeArm"
		},
		{
			"children":[
				69
			],
			"name":"Character1_Ctrl_RightArm"
		},
		{
			"children":[
				70
			],
			"name":"Character1_Ctrl_RightShoulder"
		},
		{
			"children":[
				45,
				47,
				71
			],
			"name":"Character1_Ctrl_Spine2"
		},
		{
			"children":[
				72
			],
			"name":"Character1_Ctrl_Spine1"
		},
		{
			"children":[
				73
			],
			"name":"Character1_Ctrl_Spine"
		},
		{
			"children":[
				17,
				21,
				74
			],
			"name":"Character1_Ctrl_Hips"
		}
	],
	"materials":[
		{
			"doubleSided":true,
			"name":"Weapon31",
			"pbrMetallicRoughness":{
				"baseColorTexture":{
					"index":0
				},
				"metallicFactor":0.5,
				"roughnessFactor":0.7487671971321106
			}
		}
	],
	"meshes":[
		{
			"name":"\u30e1\u30c3\u30b7\u30e5.025",
			"primitives":[
				{
					"attributes":{
						"POSITION":0,
						"NORMAL":1,
						"TEXCOORD_0":2
					},
					"indices":3,
					"material":0
				}
			]
		},
		{
			"name":"\u30e1\u30c3\u30b7\u30e5.029",
			"primitives":[
				{
					"attributes":{
						"POSITION":4,
						"NORMAL":5,
						"TEXCOORD_0":6
					},
					"indices":7,
					"material":0
				}
			]
		},
		{
			"name":"\u30e1\u30c3\u30b7\u30e5.022",
			"primitives":[
				{
					"attributes":{
						"POSITION":8,
						"NORMAL":9,
						"TEXCOORD_0":10
					},
					"indices":11,
					"material":0
				}
			]
		},
		{
			"name":"\u30e1\u30c3\u30b7\u30e5.026",
			"primitives":[
				{
					"attributes":{
						"POSITION":12,
						"NORMAL":13,
						"TEXCOORD_0":14
					},
					"indices":15,
					"material":0
				}
			]
		},
		{
			"name":"\u30e1\u30c3\u30b7\u30e5.030",
			"primitives":[
				{
					"attributes":{
						"POSITION":16,
						"NORMAL":17,
						"TEXCOORD_0":18
					},
					"indices":19,
					"material":0
				}
			]
		},
		{
			"name":"\u30e1\u30c3\u30b7\u30e5.023",
			"primitives":[
				{
					"attributes":{
						"POSITION":20,
						"NORMAL":21,
						"TEXCOORD_0":22
					},
					"indices":23,
					"material":0
				}
			]
		},
		{
			"name":"\u30e1\u30c3\u30b7\u30e5.019",
			"primitives":[
				{
					"attributes":{
						"POSITION":24,
						"NORMAL":25,
						"TEXCOORD_0":26
					},
					"indices":27,
					"material":0
				}
			]
		},
		{
			"name":"\u30e1\u30c3\u30b7\u30e5.031",
			"primitives":[
				{
					"attributes":{
						"POSITION":28,
						"NORMAL":29,
						"TEXCOORD_0":30
					},
					"indices":31,
					"material":0
				}
			]
		},
		{
			"name":"\u30e1\u30c3\u30b7\u30e5.032",
			"primitives":[
				{
					"attributes":{
						"POSITION":32,
						"NORMAL":33,
						"TEXCOORD_0":34
					},
					"indices":35,
					"material":0
				}
			]
		},
		{
			"name":"\u30e1\u30c3\u30b7\u30e5.020",
			"primitives":[
				{
					"attributes":{
						"POSITION":36,
						"NORMAL":37,
						"TEXCOORD_0":38
					},
					"indices":39,
					"material":0
				}
			]
		},
		{
			"name":"\u30e1\u30c3\u30b7\u30e5.021",
			"primitives":[
				{
					"attributes":{
						"POSITION":40,
						"NORMAL":41,
						"TEXCOORD_0":42
					},
					"indices":43,
					"material":0
				}
			]
		},
		{
			"name":"\u30e1\u30c3\u30b7\u30e5.027",
			"primitives":[
				{
					"attributes":{
						"POSITION":44,
						"NORMAL":45,
						"TEXCOORD_0":46
					},
					"indices":47,
					"material":0
				}
			]
		},
		{
			"name":"\u30e1\u30c3\u30b7\u30e5.024",
			"primitives":[
				{
					"attributes":{
						"POSITION":48,
						"NORMAL":49,
						"TEXCOORD_0":50
					},
					"indices":51,
					"material":0
				}
			]
		},
		{
			"name":"\u30e1\u30c3\u30b7\u30e5.028",
			"primitives":[
				{
					"attributes":{
						"POSITION":52,
						"NORMAL":53,
						"TEXCOORD_0":54
					},
					"indices":55,
					"material":0
				}
			]
		}
	],
	"textures":[
		{
			"sampler":0,
			"source":0
		}
	],
	"images":[
		{
			"mimeType":"image/png",
			"name":"T_Weapon_roug",
			"uri":"T_Weapon_roug.png"
		}
	],
	"accessors":[
		{
			"bufferView":0,
			"componentType":5126,
			"count":52,
			"max":[
				0.03934776782989502,
				0.013733400031924248,
				0.7385076284408569
			],
			"min":[
				-0.021752120926976204,
				-0.04817558825016022,
				0.7167034149169922
			],
			"type":"VEC3"
		},
		{
			"bufferView":1,
			"componentType":5126,
			"count":52,
			"type":"VEC3"
		},
		{
			"bufferView":2,
			"componentType":5126,
			"count":52,
			"type":"VEC2"
		},
		{
			"bufferView":3,
			"componentType":5123,
			"count":216,
			"type":"SCALAR"
		},
		{
			"bufferView":4,
			"componentType":5126,
			"count":56,
			"max":[
				0.04052278399467468,
				0.07645739614963531,
				-1.8154380321502686
			],
			"min":[
				-0.023776205256581306,
				0.01438840851187706,
				-1.8353080749511719
			],
			"type":"VEC3"
		},
		{
			"bufferView":5,
			"componentType":5126,
			"count":56,
			"type":"VEC3"
		},
		{
			"bufferView":6,
			"componentType":5126,
			"count":56,
			"type":"VEC2"
		},
		{
			"bufferView":7,
			"componentType":5123,
			"count":234,
			"type":"SCALAR"
		},
		{
			"bufferView":8,
			"componentType":5126,
			"count":48,
			"max":[
				0.04042529687285423,
				0.013928472995758057,
				0.7107080817222595
			],
			"min":[
				-0.02301788702607155,
				-0.04858262836933136,
				0.6888810992240906
			],
			"type":"VEC3"
		},
		{
			"bufferView":9,
			"componentType":5126,
			"count":48,
			"type":"VEC3"
		},
		{
			"bufferView":10,
			"componentType":5126,
			"count":48,
			"type":"VEC2"
		},
		{
			"bufferView":11,
			"componentType":5123,
			"count":198,
			"type":"SCALAR"
		},
		{
			"bufferView":12,
			"componentType":5126,
			"count":52,
			"max":[
				0.039643943309783936,
				0.013743473216891289,
				0.7672961354255676
			],
			"min":[
				-0.02166694402694702,
				-0.04920552670955658,
				0.7454951405525208
			],
			"type":"VEC3"
		},
		{
			"bufferView":13,
			"componentType":5126,
			"count":52,
			"type":"VEC3"
		},
		{
			"bufferView":14,
			"componentType":5126,
			"count":52,
			"type":"VEC2"
		},
		{
			"bufferView":15,
			"componentType":5123,
			"count":216,
			"type":"SCALAR"
		},
		{
			"bufferView":16,
			"componentType":5126,
			"count":52,
			"max":[
				0.04012924060225487,
				0.07460929453372955,
				-1.7611491680145264
			],
			"min":[
				-0.02365690842270851,
				0.013550382107496262,
				-1.7809813022613525
			],
			"type":"VEC3"
		},
		{
			"bufferView":17,
			"componentType":5126,
			"count":52,
			"type":"VEC3"
		},
		{
			"bufferView":18,
			"componentType":5126,
			"count":52,
			"type":"VEC2"
		},
		{
			"bufferView":19,
			"componentType":5123,
			"count":216,
			"type":"SCALAR"
		},
		{
			"bufferView":20,
			"componentType":5126,
			"count":48,
			"max":[
				0.0406799241900444,
				0.011676467955112457,
				0.7936099171638489
			],
			"min":[
				-0.021919136866927147,
				-0.05065343528985977,
				0.7718948721885681
			],
			"type":"VEC3"
		},
		{
			"bufferView":21,
			"componentType":5126,
			"count":48,
			"type":"VEC3"
		},
		{
			"bufferView":22,
			"componentType":5126,
			"count":48,
			"type":"VEC2"
		},
		{
			"bufferView":23,
			"componentType":5123,
			"count":198,
			"type":"SCALAR"
		},
		{
			"bufferView":24,
			"componentType":5126,
			"count":102,
			"max":[
				0.11966719478368759,
				0.09533558785915375,
				-1.8396307229995728
			],
			"min":[
				-0.10156164318323135,
				0.020352691411972046,
				-3.526123523712158
			],
			"type":"VEC3"
		},
		{
			"bufferView":25,
			"componentType":5126,
			"count":102,
			"type":"VEC3"
		},
		{
			"bufferView":26,
			"componentType":5126,
			"count":102,
			"type":"VEC2"
		},
		{
			"bufferView":27,
			"componentType":5123,
			"count":432,
			"type":"SCALAR"
		},
		{
			"bufferView":28,
			"componentType":5126,
			"count":299,
			"max":[
				0.03410527482628822,
				0.06846138834953308,
				0.7968361973762512
			],
			"min":[
				-0.016896869987249374,
				-0.04388560727238655,
				-1.8672549724578857
			],
			"type":"VEC3"
		},
		{
			"bufferView":29,
			"componentType":5126,
			"count":299,
			"type":"VEC3"
		},
		{
			"bufferView":30,
			"componentType":5126,
			"count":299,
			"type":"VEC2"
		},
		{
			"bufferView":31,
			"componentType":5123,
			"count":1440,
			"type":"SCALAR"
		},
		{
			"bufferView":32,
			"componentType":5126,
			"count":252,
			"max":[
				0.12499009817838669,
				0.15259449183940887,
				-1.8281853199005127
			],
			"min":[
				-0.10630882531404495,
				-0.058927398175001144,
				-1.858999252319336
			],
			"type":"VEC3"
		},
		{
			"bufferView":33,
			"componentType":5126,
			"count":252,
			"type":"VEC3"
		},
		{
			"bufferView":34,
			"componentType":5126,
			"count":252,
			"type":"VEC2"
		},
		{
			"bufferView":35,
			"componentType":5123,
			"count":1296,
			"type":"SCALAR"
		},
		{
			"bufferView":36,
			"componentType":5126,
			"count":38,
			"max":[
				0.027726147323846817,
				0.07305730134248734,
				1.2217297554016113
			],
			"min":[
				-0.13504484295845032,
				-0.024325601756572723,
				0.8392669558525085
			],
			"type":"VEC3"
		},
		{
			"bufferView":37,
			"componentType":5126,
			"count":38,
			"type":"VEC3"
		},
		{
			"bufferView":38,
			"componentType":5126,
			"count":38,
			"type":"VEC2"
		},
		{
			"bufferView":39,
			"componentType":5123,
			"count":108,
			"type":"SCALAR"
		},
		{
			"bufferView":40,
			"componentType":5126,
			"count":36,
			"max":[
				0.058980245143175125,
				0.06618939340114594,
				1.2174797058105469
			],
			"min":[
				-0.009185653179883957,
				-0.03516549989581108,
				0.8318946361541748
			],
			"type":"VEC3"
		},
		{
			"bufferView":41,
			"componentType":5126,
			"count":36,
			"type":"VEC3"
		},
		{
			"bufferView":42,
			"componentType":5126,
			"count":36,
			"type":"VEC2"
		},
		{
			"bufferView":43,
			"componentType":5123,
			"count":102,
			"type":"SCALAR"
		},
		{
			"bufferView":44,
			"componentType":5126,
			"count":56,
			"max":[
				0.020493850111961365,
				0.012946376577019691,
				0.8570000529289246
			],
			"min":[
				-0.0028760572895407677,
				-0.050366632640361786,
				0.793851912021637
			],
			"type":"VEC3"
		},
		{
			"bufferView":45,
			"componentType":5126,
			"count":56,
			"type":"VEC3"
		},
		{
			"bufferView":46,
			"componentType":5126,
			"count":56,
			"type":"VEC2"
		},
		{
			"bufferView":47,
			"componentType":5123,
			"count":234,
			"type":"SCALAR"
		},
		{
			"bufferView":48,
			"componentType":5126,
			"count":52,
			"max":[
				0.0406087264418602,
				0.014829518273472786,
				0.6821154356002808
			],
			"min":[
				-0.02284923754632473,
				-0.048046573996543884,
				0.6602882146835327
			],
			"type":"VEC3"
		},
		{
			"bufferView":49,
			"componentType":5126,
			"count":52,
			"type":"VEC3"
		},
		{
			"bufferView":50,
			"componentType":5126,
			"count":52,
			"type":"VEC2"
		},
		{
			"bufferView":51,
			"componentType":5123,
			"count":216,
			"type":"SCALAR"
		},
		{
			"bufferView":52,
			"componentType":5126,
			"count":56,
			"max":[
				0.04077290743589401,
				0.07526839524507523,
				-1.7905505895614624
			],
			"min":[
				-0.0245062168687582,
				0.013194404542446136,
				-1.8104565143585205
			],
			"type":"VEC3"
		},
		{
			"bufferView":53,
			"componentType":5126,
			"count":56,
			"type":"VEC3"
		},
		{
			"bufferView":54,
			"componentType":5126,
			"count":56,
			"type":"VEC2"
		},
		{
			"bufferView":55,
			"componentType":5123,
			"count":234,
			"type":"SCALAR"
		}
	],
	"bufferViews":[
		{
			"buffer":0,
			"byteLength":624,
			"byteOffset":0,
			"target":34962
		},
		{
			"buffer":0,
			"byteLength":624,
			"byteOffset":624,
			"target":34962
		},
		{
			"buffer":0,
			"byteLength":416,
			"byteOffset":1248,
			"target":34962
		},
		{
			"buffer":0,
			"byteLength":432,
			"byteOffset":1664,
			"target":34963
		},
		{
			"buffer":0,
			"byteLength":672,
			"byteOffset":2096,
			"target":34962
		},
		{
			"buffer":0,
			"byteLength":672,
			"byteOffset":2768,
			"target":34962
		},
		{
			"buffer":0,
			"byteLength":448,
			"byteOffset":3440,
			"target":34962
		},
		{
			"buffer":0,
			"byteLength":468,
			"byteOffset":3888,
			"target":34963
		},
		{
			"buffer":0,
			"byteLength":576,
			"byteOffset":4356,
			"target":34962
		},
		{
			"buffer":0,
			"byteLength":576,
			"byteOffset":4932,
			"target":34962
		},
		{
			"buffer":0,
			"byteLength":384,
			"byteOffset":5508,
			"target":34962
		},
		{
			"buffer":0,
			"byteLength":396,
			"byteOffset":5892,
			"target":34963
		},
		{
			"buffer":0,
			"byteLength":624,
			"byteOffset":6288,
			"target":34962
		},
		{
			"buffer":0,
			"byteLength":624,
			"byteOffset":6912,
			"target":34962
		},
		{
			"buffer":0,
			"byteLength":416,
			"byteOffset":7536,
			"target":34962
		},
		{
			"buffer":0,
			"byteLength":432,
			"byteOffset":7952,
			"target":34963
		},
		{
			"buffer":0,
			"byteLength":624,
			"byteOffset":8384,
			"target":34962
		},
		{
			"buffer":0,
			"byteLength":624,
			"byteOffset":9008,
			"target":34962
		},
		{
			"buffer":0,
			"byteLength":416,
			"byteOffset":9632,
			"target":34962
		},
		{
			"buffer":0,
			"byteLength":432,
			"byteOffset":10048,
			"target":34963
		},
		{
			"buffer":0,
			"byteLength":576,
			"byteOffset":10480,
			"target":34962
		},
		{
			"buffer":0,
			"byteLength":576,
			"byteOffset":11056,
			"target":34962
		},
		{
			"buffer":0,
			"byteLength":384,
			"byteOffset":11632,
			"target":34962
		},
		{
			"buffer":0,
			"byteLength":396,
			"byteOffset":12016,
			"target":34963
		},
		{
			"buffer":0,
			"byteLength":1224,
			"byteOffset":12412,
			"target":34962
		},
		{
			"buffer":0,
			"byteLength":1224,
			"byteOffset":13636,
			"target":34962
		},
		{
			"buffer":0,
			"byteLength":816,
			"byteOffset":14860,
			"target":34962
		},
		{
			"buffer":0,
			"byteLength":864,
			"byteOffset":15676,
			"target":34963
		},
		{
			"buffer":0,
			"byteLength":3588,
			"byteOffset":16540,
			"target":34962
		},
		{
			"buffer":0,
			"byteLength":3588,
			"byteOffset":20128,
			"target":34962
		},
		{
			"buffer":0,
			"byteLength":2392,
			"byteOffset":23716,
			"target":34962
		},
		{
			"buffer":0,
			"byteLength":2880,
			"byteOffset":26108,
			"target":34963
		},
		{
			"buffer":0,
			"byteLength":3024,
			"byteOffset":28988,
			"target":34962
		},
		{
			"buffer":0,
			"byteLength":3024,
			"byteOffset":32012,
			"target":34962
		},
		{
			"buffer":0,
			"byteLength":2016,
			"byteOffset":35036,
			"target":34962
		},
		{
			"buffer":0,
			"byteLength":2592,
			"byteOffset":37052,
			"target":34963
		},
		{
			"buffer":0,
			"byteLength":456,
			"byteOffset":39644,
			"target":34962
		},
		{
			"buffer":0,
			"byteLength":456,
			"byteOffset":40100,
			"target":34962
		},
		{
			"buffer":0,
			"byteLength":304,
			"byteOffset":40556,
			"target":34962
		},
		{
			"buffer":0,
			"byteLength":216,
			"byteOffset":40860,
			"target":34963
		},
		{
			"buffer":0,
			"byteLength":432,
			"byteOffset":41076,
			"target":34962
		},
		{
			"buffer":0,
			"byteLength":432,
			"byteOffset":41508,
			"target":34962
		},
		{
			"buffer":0,
			"byteLength":288,
			"byteOffset":41940,
			"target":34962
		},
		{
			"buffer":0,
			"byteLength":204,
			"byteOffset":42228,
			"target":34963
		},
		{
			"buffer":0,
			"byteLength":672,
			"byteOffset":42432,
			"target":34962
		},
		{
			"buffer":0,
			"byteLength":672,
			"byteOffset":43104,
			"target":34962
		},
		{
			"buffer":0,
			"byteLength":448,
			"byteOffset":43776,
			"target":34962
		},
		{
			"buffer":0,
			"byteLength":468,
			"byteOffset":44224,
			"target":34963
		},
		{
			"buffer":0,
			"byteLength":624,
			"byteOffset":44692,
			"target":34962
		},
		{
			"buffer":0,
			"byteLength":624,
			"byteOffset":45316,
			"target":34962
		},
		{
			"buffer":0,
			"byteLength":416,
			"byteOffset":45940,
			"target":34962
		},
		{
			"buffer":0,
			"byteLength":432,
			"byteOffset":46356,
			"target":34963
		},
		{
			"buffer":0,
			"byteLength":672,
			"byteOffset":46788,
			"target":34962
		},
		{
			"buffer":0,
			"byteLength":672,
			"byteOffset":47460,
			"target":34962
		},
		{
			"buffer":0,
			"byteLength":448,
			"byteOffset":48132,
			"target":34962
		},
		{
			"buffer":0,
			"byteLength":468,
			"byteOffset":48580,
			"target":34963
		}
	],
	"samplers":[
		{
			"magFilter":9729,
			"minFilter":9987
		}
	],
	"buffers":[
		{
			"byteLength":49048,
			"uri":"Player_Weapon.bin"
		}
	]
}
